<svg version="1.0" xmlns="http://www.w3.org/2000/svg"
     width="2000" height="800" viewBox="0 0 1050.000000 600.000000"
     preserveAspectRatio="xMidYMid meet">

    <g transform="translate(0.000000,600.000000) scale(0.100000,-0.100000)"
       fill="#000000" stroke="none">
        <path d="M3071 3524 c-19 -16 -31 -35 -31 -50 0 -33 42 -74 75 -74 33 0 75 41
75 73 0 30 -42 77 -69 77 -11 0 -33 -12 -50 -26z"/>
        <path d="M6465 3487 c-45 -25 -85 -92 -85 -143 0 -41 24 -109 56 -157 14 -22
24 -40 22 -42 -2 -1 -19 -10 -38 -20 -47 -23 -108 -82 -131 -127 -21 -41 -26
-129 -9 -172 16 -44 79 -104 128 -123 99 -38 236 -16 322 53 l44 35 41 -45 40
-46 95 -1 c90 -2 95 -1 98 20 3 17 -2 21 -23 21 -43 0 -87 25 -139 78 l-50 51
37 78 c20 43 43 96 50 118 12 35 19 41 60 53 32 9 47 18 47 30 0 15 -14 17
-122 16 -114 -1 -123 -2 -123 -20 0 -14 11 -21 43 -28 40 -8 43 -11 37 -35 -3
-14 -21 -57 -38 -95 l-33 -69 -97 109 c-84 93 -95 110 -81 119 113 67 168 212
112 295 -34 49 -81 70 -158 70 -49 0 -75 -6 -105 -23z m143 -33 c69 -19 69
-178 0 -251 -12 -13 -27 -23 -34 -23 -17 0 -83 99 -95 144 -26 93 35 155 129
130z m6 -489 c109 -124 113 -131 98 -149 -27 -30 -93 -56 -147 -56 -64 0 -132
33 -162 79 -28 41 -31 126 -7 177 19 40 70 86 91 82 7 -2 65 -61 127 -133z"/>
        <path d="M5296 3365 c-9 -48 -50 -93 -92 -101 -27 -5 -34 -11 -34 -30 0 -21 5
-24 39 -24 l39 0 4 -217 c3 -186 6 -223 21 -251 33 -60 116 -78 195 -42 31 14
43 25 40 37 -2 12 -11 17 -23 15 -83 -14 -82 -14 -99 9 -14 20 -16 56 -16 236
l0 212 63 3 c59 3 62 4 62 28 0 24 -3 25 -62 28 l-63 3 0 64 0 65 -34 0 c-31
0 -34 -3 -40 -35z"/>
        <path d="M9685 3350 c-18 -54 -42 -76 -94 -86 -25 -5 -31 -11 -29 -28 2 -17
11 -22 46 -24 l42 -3 0 -212 c0 -240 6 -267 70 -300 42 -22 115 -17 160 10 33
19 36 50 5 45 -11 -1 -36 -5 -57 -8 -58 -10 -62 7 -66 254 l-4 212 66 0 66 0
0 30 c0 29 -1 29 -62 32 l-63 3 -3 63 c-3 61 -3 62 -32 62 -25 0 -30 -5 -45
-50z"/>
        <path d="M811 3299 c-40 -4 -93 -15 -118 -24 -42 -16 -44 -19 -39 -49 3 -17 8
-50 12 -73 6 -39 9 -43 34 -43 27 0 28 3 35 61 8 69 21 79 105 79 89 0 120
-51 112 -187 l-3 -53 -63 0 c-119 0 -224 -48 -252 -116 -62 -149 92 -265 252
-190 28 13 55 29 58 35 12 19 23 12 29 -18 5 -24 12 -29 41 -33 20 -2 57 -1
83 2 39 4 48 9 48 25 0 14 -10 22 -37 28 l-36 9 -4 211 c-5 231 -14 279 -65
312 -34 23 -105 32 -192 24z m139 -413 c0 -79 -2 -86 -26 -105 -32 -26 -86
-41 -116 -34 -45 11 -68 43 -68 93 0 84 55 122 183 129 l27 1 0 -84z"/>
        <path d="M4550 3298 c-158 -23 -258 -186 -229 -371 27 -167 138 -255 308 -245
119 7 195 58 243 163 33 72 33 218 0 290 -58 125 -174 184 -322 163z m144 -78
c63 -55 92 -176 76 -308 -16 -123 -68 -182 -160 -182 -63 0 -108 31 -140 95
-22 45 -25 62 -25 165 0 105 2 120 27 170 33 68 66 89 135 90 44 0 58 -5 87
-30z"/>
        <path d="M1637 3266 l-57 -35 0 30 c0 25 -4 29 -28 29 -32 0 -156 -25 -171
-35 -22 -13 -11 -35 17 -35 15 0 37 -3 50 -6 l22 -6 -2 -372 -3 -371 -37 -9
c-29 -7 -38 -15 -38 -30 0 -20 4 -21 147 -20 136 2 148 3 148 20 0 13 -12 21
-45 29 l-45 11 -3 117 -3 118 28 -8 c15 -5 64 -8 108 -8 71 0 86 3 135 31 102
58 147 161 138 314 -10 170 -100 270 -241 270 -54 0 -71 -5 -120 -34z m190
-79 c40 -45 58 -124 50 -229 -10 -122 -51 -195 -125 -219 -36 -12 -95 -7 -137
13 l-25 11 0 208 0 208 29 20 c68 49 157 43 208 -12z"/>
        <path d="M2590 3279 c-19 -11 -52 -39 -72 -62 l-37 -42 -1 53 c0 38 -4 54 -15
58 -13 5 -117 -9 -167 -23 -27 -7 -23 -43 5 -43 12 0 32 -3 45 -6 22 -6 22 -6
22 -234 l0 -228 -40 -7 c-32 -5 -40 -11 -40 -28 0 -22 2 -22 152 -20 142 2
153 3 156 21 2 16 -6 21 -50 28 l-53 9 0 181 0 181 29 37 c30 41 81 76 108 76
12 0 18 -14 23 -60 7 -57 8 -60 35 -60 27 0 29 3 39 63 15 88 14 105 -8 117
-32 16 -93 11 -131 -11z"/>
        <path d="M3739 3285 c-67 -21 -130 -82 -164 -156 -25 -56 -27 -70 -23 -153 3
-77 8 -99 33 -145 88 -161 279 -198 425 -82 20 16 22 22 11 34 -11 14 -16 13
-44 -3 -18 -11 -55 -24 -84 -30 -125 -27 -209 50 -220 204 -10 130 24 224 97
274 30 20 44 23 97 20 34 -2 65 -6 68 -9 3 -4 9 -33 13 -65 6 -54 9 -59 33
-62 32 -4 38 9 46 94 l6 61 -34 13 c-54 19 -206 22 -260 5z"/>
        <path d="M8103 3286 c-23 -8 -61 -28 -85 -45 l-43 -32 -3 41 c-3 38 -5 40 -35
40 -28 0 -58 -6 -144 -25 -15 -3 -23 -13 -23 -25 0 -14 7 -20 23 -20 12 0 32
-3 45 -6 l22 -6 -2 -227 -3 -226 -37 -9 c-29 -7 -38 -15 -38 -30 0 -20 4 -21
137 -19 123 2 138 4 138 19 0 11 -13 22 -35 29 l-35 12 -3 201 -2 201 45 27
c87 50 185 39 202 -24 5 -15 8 -112 8 -217 l0 -190 -37 -9 c-29 -7 -38 -15
-38 -30 0 -20 5 -21 132 -21 101 0 135 3 142 13 11 18 -1 28 -44 39 l-35 9 -5
226 c-5 209 -7 229 -26 255 -43 59 -128 78 -221 49z"/>
        <path d="M3061 3275 c-59 -12 -86 -29 -75 -47 3 -4 15 -8 27 -8 12 0 32 -3 45
-6 l22 -6 -2 -227 -3 -226 -37 -9 c-29 -7 -38 -15 -38 -30 0 -20 5 -21 135
-21 74 0 136 3 137 8 5 25 -1 31 -32 42 l-35 12 -5 264 -5 264 -35 2 c-19 0
-64 -5 -99 -12z"/>
        <path d="M8755 3279 c-22 -5 -50 -11 -62 -14 -35 -8 -31 -45 5 -45 15 0 32 -4
39 -8 8 -5 12 -70 15 -217 3 -229 9 -256 65 -292 43 -29 155 -24 219 9 27 15
56 34 63 42 22 27 39 18 46 -23 5 -33 11 -40 37 -45 16 -3 55 -3 85 0 47 6 54
9 51 28 -2 14 -14 23 -40 29 l-38 9 0 264 c0 235 -2 265 -16 271 -14 5 -111
-8 -166 -24 -28 -7 -23 -43 6 -43 57 0 56 3 56 -200 l0 -189 -26 -20 c-68 -54
-161 -63 -200 -20 -17 19 -19 44 -24 258 l-5 236 -35 2 c-19 1 -53 -3 -75 -8z"/>
    </g>
</svg>